<?xml version="1.0" encoding="UTF-8"?>
<svg viewBox="0 0 313.62 471.66" xmlns="http://www.w3.org/2000/svg">
 <path fill="#0f2f50" d="m159.09 39.375l-74.094 0.0625c-34.507 0-38.906 28.714-38.906 58.906l-21 212.84c0 29.25 22.894 53.26 45.906 56.968l-69 103.5h39.812l49.375-72.343 19.562-32h93.125l22.563 32 49.375 72.343h39.812l-69-103.5c23.012-3.708 45.906-27.718 45.906-56.968l-22-213.84c0-30.192-3.399-57.906-37.906-57.906l-73.531-0.0625zm-29.344 12.406h58.125c5.25 0 9.813 4.4062 9.813 9.6562v17c0 5.25-4.313 9.75-9.813 9.75h-58.125c-5.5 0-9.812-4.5-9.812-9.75v-17c0-5.25 4.562-9.6562 9.812-9.6562zm-42.75 47.938h143.62c19.5 0 25.844 14.969 25.844 30.969l4 37.5c0.15201 18.5-13.344 29.812-29.844 29.812h-143.62c-16.5 0-29.996-11.312-29.844-29.812l5-40.5c0-16 5.3437-27.969 24.844-27.969zm-3.25 197.72c14.505 0 26.25-1.256 26.25 13.25 0 14.503-11.745 14.25-26.25 14.25s-26.25 0.25302-26.25-14.25c0-14.506 11.745-13.25 26.25-13.25zm148.5 0c14.505 0 27.281-1.256 27.281 13.25 0 14.503-11.776 15.25-26.281 15.25s-26.25-0.74698-26.25-15.25c0-14.506 10.745-13.25 25.25-13.25z"/>
 <g stroke-width="null">
  <rect fill="#0f2f50" x="70.378" y="404.34" width="177" height="8"/>
  <rect fill="#0f2f50" x="56.378" y="428.34" width="205" height="7"/>
  <rect fill="#0f2f50" x="46.378" y="452.34" width="220" height="7"/>
  <rect fill="#0f2f50" x="72.877" y="378.34" width="177" height="8"/>
 </g>
</svg>
